<svg xmlns="http://www.w3.org/2000/svg" viewBox="0 0 800 400" width="800" height="400">
<rect width="800" height="400" fill="white"/>
<defs><linearGradient id="areaGrad" x1="0" y1="0" x2="0" y2="1"><stop offset="0%" stop-color="#4A90D9" stop-opacity="0.3"/><stop offset="100%" stop-color="#4A90D9" stop-opacity="0.05"/></linearGradient></defs>
<line x1="80" y1="301.1" x2="760" y2="301.1" stroke="#E5E5E5" stroke-width="1"/>
<text x="72" y="305.1" text-anchor="end" font-family="system-ui, sans-serif" font-size="12" fill="#666">2k</text>
<line x1="80" y1="231.7" x2="760" y2="231.7" stroke="#E5E5E5" stroke-width="1"/>
<text x="72" y="235.7" text-anchor="end" font-family="system-ui, sans-serif" font-size="12" fill="#666">2k</text>
<line x1="80" y1="162.2" x2="760" y2="162.2" stroke="#E5E5E5" stroke-width="1"/>
<text x="72" y="166.2" text-anchor="end" font-family="system-ui, sans-serif" font-size="12" fill="#666">2k</text>
<line x1="80" y1="92.8" x2="760" y2="92.8" stroke="#E5E5E5" stroke-width="1"/>
<text x="72" y="96.8" text-anchor="end" font-family="system-ui, sans-serif" font-size="12" fill="#666">2k</text>
<text x="80.0" y="360" text-anchor="middle" font-family="system-ui, sans-serif" font-size="12" fill="#666">Feb 2026</text>
<text x="193.3" y="360" text-anchor="middle" font-family="system-ui, sans-serif" font-size="12" fill="#666">Feb 2026</text>
<text x="306.7" y="360" text-anchor="middle" font-family="system-ui, sans-serif" font-size="12" fill="#666">Feb 2026</text>
<text x="420.0" y="360" text-anchor="middle" font-family="system-ui, sans-serif" font-size="12" fill="#666">Feb 2026</text>
<text x="533.3" y="360" text-anchor="middle" font-family="system-ui, sans-serif" font-size="12" fill="#666">Feb 2026</text>
<text x="646.7" y="360" text-anchor="middle" font-family="system-ui, sans-serif" font-size="12" fill="#666">Feb 2026</text>
<text x="760.0" y="360" text-anchor="middle" font-family="system-ui, sans-serif" font-size="12" fill="#666">Feb 2026</text>
<path d="M80.0,340.0 L80.0,315.0 L391.0,308.1 L397.8,210.8 L399.8,210.8 L404.3,217.8 L405.1,217.8 L407.4,217.8 L410.9,210.8 L411.0,210.8 L411.8,207.4 L413.8,207.4 L415.8,190.0 L416.7,190.0 L417.6,190.0 L418.6,183.1 L419.7,183.1 L422.2,183.1 L422.8,183.1 L424.4,169.2 L425.5,169.2 L427.4,169.2 L428.5,169.2 L430.8,148.3 L432.2,148.3 L432.8,148.3 L433.6,148.3 L435.1,148.3 L436.9,148.3 L438.0,148.3 L439.3,124.0 L441.5,124.0 L442.5,106.7 L444.1,106.7 L445.0,106.7 L446.8,85.8 L447.3,85.8 L448.4,85.8 L449.5,85.8 L451.5,85.8 L760.0,65.0 L760.0,340.0Z" fill="url(#areaGrad)"/>
<path d="M80.0,315.0 L391.0,308.1 L397.8,210.8 L399.8,210.8 L404.3,217.8 L405.1,217.8 L407.4,217.8 L410.9,210.8 L411.0,210.8 L411.8,207.4 L413.8,207.4 L415.8,190.0 L416.7,190.0 L417.6,190.0 L418.6,183.1 L419.7,183.1 L422.2,183.1 L422.8,183.1 L424.4,169.2 L425.5,169.2 L427.4,169.2 L428.5,169.2 L430.8,148.3 L432.2,148.3 L432.8,148.3 L433.6,148.3 L435.1,148.3 L436.9,148.3 L438.0,148.3 L439.3,124.0 L441.5,124.0 L442.5,106.7 L444.1,106.7 L445.0,106.7 L446.8,85.8 L447.3,85.8 L448.4,85.8 L449.5,85.8 L451.5,85.8 L760.0,65.0" fill="none" stroke="#4A90D9" stroke-width="2.5" stroke-linejoin="round" stroke-linecap="round"/>
<circle cx="80.0" cy="315.0" r="3.5" fill="white" stroke="#4A90D9" stroke-width="2"/>
<circle cx="391.0" cy="308.1" r="3.5" fill="white" stroke="#4A90D9" stroke-width="2"/>
<circle cx="397.8" cy="210.8" r="3.5" fill="white" stroke="#4A90D9" stroke-width="2"/>
<circle cx="399.8" cy="210.8" r="3.5" fill="white" stroke="#4A90D9" stroke-width="2"/>
<circle cx="404.3" cy="217.8" r="3.5" fill="white" stroke="#4A90D9" stroke-width="2"/>
<circle cx="405.1" cy="217.8" r="3.5" fill="white" stroke="#4A90D9" stroke-width="2"/>
<circle cx="407.4" cy="217.8" r="3.5" fill="white" stroke="#4A90D9" stroke-width="2"/>
<circle cx="410.9" cy="210.8" r="3.5" fill="white" stroke="#4A90D9" stroke-width="2"/>
<circle cx="411.0" cy="210.8" r="3.5" fill="white" stroke="#4A90D9" stroke-width="2"/>
<circle cx="411.8" cy="207.4" r="3.5" fill="white" stroke="#4A90D9" stroke-width="2"/>
<circle cx="413.8" cy="207.4" r="3.5" fill="white" stroke="#4A90D9" stroke-width="2"/>
<circle cx="415.8" cy="190.0" r="3.5" fill="white" stroke="#4A90D9" stroke-width="2"/>
<circle cx="416.7" cy="190.0" r="3.5" fill="white" stroke="#4A90D9" stroke-width="2"/>
<circle cx="417.6" cy="190.0" r="3.5" fill="white" stroke="#4A90D9" stroke-width="2"/>
<circle cx="418.6" cy="183.1" r="3.5" fill="white" stroke="#4A90D9" stroke-width="2"/>
<circle cx="419.7" cy="183.1" r="3.5" fill="white" stroke="#4A90D9" stroke-width="2"/>
<circle cx="422.2" cy="183.1" r="3.5" fill="white" stroke="#4A90D9" stroke-width="2"/>
<circle cx="422.8" cy="183.1" r="3.5" fill="white" stroke="#4A90D9" stroke-width="2"/>
<circle cx="424.4" cy="169.2" r="3.5" fill="white" stroke="#4A90D9" stroke-width="2"/>
<circle cx="425.5" cy="169.2" r="3.5" fill="white" stroke="#4A90D9" stroke-width="2"/>
<circle cx="427.4" cy="169.2" r="3.5" fill="white" stroke="#4A90D9" stroke-width="2"/>
<circle cx="428.5" cy="169.2" r="3.5" fill="white" stroke="#4A90D9" stroke-width="2"/>
<circle cx="430.8" cy="148.3" r="3.5" fill="white" stroke="#4A90D9" stroke-width="2"/>
<circle cx="432.2" cy="148.3" r="3.5" fill="white" stroke="#4A90D9" stroke-width="2"/>
<circle cx="432.8" cy="148.3" r="3.5" fill="white" stroke="#4A90D9" stroke-width="2"/>
<circle cx="433.6" cy="148.3" r="3.5" fill="white" stroke="#4A90D9" stroke-width="2"/>
<circle cx="435.1" cy="148.3" r="3.5" fill="white" stroke="#4A90D9" stroke-width="2"/>
<circle cx="436.9" cy="148.3" r="3.5" fill="white" stroke="#4A90D9" stroke-width="2"/>
<circle cx="438.0" cy="148.3" r="3.5" fill="white" stroke="#4A90D9" stroke-width="2"/>
<circle cx="439.3" cy="124.0" r="3.5" fill="white" stroke="#4A90D9" stroke-width="2"/>
<circle cx="441.5" cy="124.0" r="3.5" fill="white" stroke="#4A90D9" stroke-width="2"/>
<circle cx="442.5" cy="106.7" r="3.5" fill="white" stroke="#4A90D9" stroke-width="2"/>
<circle cx="444.1" cy="106.7" r="3.5" fill="white" stroke="#4A90D9" stroke-width="2"/>
<circle cx="445.0" cy="106.7" r="3.5" fill="white" stroke="#4A90D9" stroke-width="2"/>
<circle cx="446.8" cy="85.8" r="3.5" fill="white" stroke="#4A90D9" stroke-width="2"/>
<circle cx="447.3" cy="85.8" r="3.5" fill="white" stroke="#4A90D9" stroke-width="2"/>
<circle cx="448.4" cy="85.8" r="3.5" fill="white" stroke="#4A90D9" stroke-width="2"/>
<circle cx="449.5" cy="85.8" r="3.5" fill="white" stroke="#4A90D9" stroke-width="2"/>
<circle cx="451.5" cy="85.8" r="3.5" fill="white" stroke="#4A90D9" stroke-width="2"/>
<circle cx="760.0" cy="65.0" r="3.5" fill="white" stroke="#4A90D9" stroke-width="2"/>
<text x="80" y="24" font-family="system-ui, sans-serif" font-size="16" font-weight="600" fill="#333">Lines of Code</text>
<line x1="80" y1="40" x2="80" y2="340" stroke="#CCC" stroke-width="1"/><line x1="80" y1="340" x2="760" y2="340" stroke="#CCC" stroke-width="1"/>
</svg>