<svg xmlns="http://www.w3.org/2000/svg" viewBox="0 0 800 400" width="800" height="400">
<rect width="800" height="400" fill="white"/>
<defs><linearGradient id="areaGrad" x1="0" y1="0" x2="0" y2="1"><stop offset="0%" stop-color="#4A90D9" stop-opacity="0.3"/><stop offset="100%" stop-color="#4A90D9" stop-opacity="0.05"/></linearGradient></defs>
<line x1="80" y1="296.8" x2="760" y2="296.8" stroke="#E5E5E5" stroke-width="1"/>
<text x="72" y="300.8" text-anchor="end" font-family="system-ui, sans-serif" font-size="12" fill="#666">2k</text>
<line x1="80" y1="251.4" x2="760" y2="251.4" stroke="#E5E5E5" stroke-width="1"/>
<text x="72" y="255.4" text-anchor="end" font-family="system-ui, sans-serif" font-size="12" fill="#666">2k</text>
<line x1="80" y1="205.9" x2="760" y2="205.9" stroke="#E5E5E5" stroke-width="1"/>
<text x="72" y="209.9" text-anchor="end" font-family="system-ui, sans-serif" font-size="12" fill="#666">2k</text>
<line x1="80" y1="160.5" x2="760" y2="160.5" stroke="#E5E5E5" stroke-width="1"/>
<text x="72" y="164.5" text-anchor="end" font-family="system-ui, sans-serif" font-size="12" fill="#666">2k</text>
<line x1="80" y1="115.0" x2="760" y2="115.0" stroke="#E5E5E5" stroke-width="1"/>
<text x="72" y="119.0" text-anchor="end" font-family="system-ui, sans-serif" font-size="12" fill="#666">2k</text>
<line x1="80" y1="69.5" x2="760" y2="69.5" stroke="#E5E5E5" stroke-width="1"/>
<text x="72" y="73.5" text-anchor="end" font-family="system-ui, sans-serif" font-size="12" fill="#666">2k</text>
<text x="80.0" y="360" text-anchor="middle" font-family="system-ui, sans-serif" font-size="12" fill="#666">Feb 2026</text>
<text x="193.3" y="360" text-anchor="middle" font-family="system-ui, sans-serif" font-size="12" fill="#666">Feb 2026</text>
<text x="306.7" y="360" text-anchor="middle" font-family="system-ui, sans-serif" font-size="12" fill="#666">Feb 2026</text>
<text x="420.0" y="360" text-anchor="middle" font-family="system-ui, sans-serif" font-size="12" fill="#666">Feb 2026</text>
<text x="533.3" y="360" text-anchor="middle" font-family="system-ui, sans-serif" font-size="12" fill="#666">Feb 2026</text>
<text x="646.7" y="360" text-anchor="middle" font-family="system-ui, sans-serif" font-size="12" fill="#666">Feb 2026</text>
<text x="760.0" y="360" text-anchor="middle" font-family="system-ui, sans-serif" font-size="12" fill="#666">Feb 2026</text>
<path d="M80.0,340.0 L80.0,315.0 L668.6,305.9 L681.4,178.6 L685.1,178.6 L693.7,187.7 L695.3,187.7 L699.5,187.7 L706.2,178.6 L706.4,178.6 L708.0,174.1 L711.6,174.1 L715.4,151.4 L717.1,151.4 L718.8,151.4 L720.9,142.3 L722.8,142.3 L727.6,142.3 L728.8,142.3 L731.7,124.1 L733.8,124.1 L737.4,124.1 L739.5,124.1 L743.9,96.8 L746.5,96.8 L747.6,96.8 L749.1,96.8 L751.9,96.8 L755.5,96.8 L757.5,96.8 L760.0,65.0 L760.0,340.0Z" fill="url(#areaGrad)"/>
<path d="M80.0,315.0 L668.6,305.9 L681.4,178.6 L685.1,178.6 L693.7,187.7 L695.3,187.7 L699.5,187.7 L706.2,178.6 L706.4,178.6 L708.0,174.1 L711.6,174.1 L715.4,151.4 L717.1,151.4 L718.8,151.4 L720.9,142.3 L722.8,142.3 L727.6,142.3 L728.8,142.3 L731.7,124.1 L733.8,124.1 L737.4,124.1 L739.5,124.1 L743.9,96.8 L746.5,96.8 L747.6,96.8 L749.1,96.8 L751.9,96.8 L755.5,96.8 L757.5,96.8 L760.0,65.0" fill="none" stroke="#4A90D9" stroke-width="2.5" stroke-linejoin="round" stroke-linecap="round"/>
<circle cx="80.0" cy="315.0" r="3.5" fill="white" stroke="#4A90D9" stroke-width="2"/>
<circle cx="668.6" cy="305.9" r="3.5" fill="white" stroke="#4A90D9" stroke-width="2"/>
<circle cx="681.4" cy="178.6" r="3.5" fill="white" stroke="#4A90D9" stroke-width="2"/>
<circle cx="685.1" cy="178.6" r="3.5" fill="white" stroke="#4A90D9" stroke-width="2"/>
<circle cx="693.7" cy="187.7" r="3.5" fill="white" stroke="#4A90D9" stroke-width="2"/>
<circle cx="695.3" cy="187.7" r="3.5" fill="white" stroke="#4A90D9" stroke-width="2"/>
<circle cx="699.5" cy="187.7" r="3.5" fill="white" stroke="#4A90D9" stroke-width="2"/>
<circle cx="706.2" cy="178.6" r="3.5" fill="white" stroke="#4A90D9" stroke-width="2"/>
<circle cx="706.4" cy="178.6" r="3.5" fill="white" stroke="#4A90D9" stroke-width="2"/>
<circle cx="708.0" cy="174.1" r="3.5" fill="white" stroke="#4A90D9" stroke-width="2"/>
<circle cx="711.6" cy="174.1" r="3.5" fill="white" stroke="#4A90D9" stroke-width="2"/>
<circle cx="715.4" cy="151.4" r="3.5" fill="white" stroke="#4A90D9" stroke-width="2"/>
<circle cx="717.1" cy="151.4" r="3.5" fill="white" stroke="#4A90D9" stroke-width="2"/>
<circle cx="718.8" cy="151.4" r="3.5" fill="white" stroke="#4A90D9" stroke-width="2"/>
<circle cx="720.9" cy="142.3" r="3.5" fill="white" stroke="#4A90D9" stroke-width="2"/>
<circle cx="722.8" cy="142.3" r="3.5" fill="white" stroke="#4A90D9" stroke-width="2"/>
<circle cx="727.6" cy="142.3" r="3.5" fill="white" stroke="#4A90D9" stroke-width="2"/>
<circle cx="728.8" cy="142.3" r="3.5" fill="white" stroke="#4A90D9" stroke-width="2"/>
<circle cx="731.7" cy="124.1" r="3.5" fill="white" stroke="#4A90D9" stroke-width="2"/>
<circle cx="733.8" cy="124.1" r="3.5" fill="white" stroke="#4A90D9" stroke-width="2"/>
<circle cx="737.4" cy="124.1" r="3.5" fill="white" stroke="#4A90D9" stroke-width="2"/>
<circle cx="739.5" cy="124.1" r="3.5" fill="white" stroke="#4A90D9" stroke-width="2"/>
<circle cx="743.9" cy="96.8" r="3.5" fill="white" stroke="#4A90D9" stroke-width="2"/>
<circle cx="746.5" cy="96.8" r="3.5" fill="white" stroke="#4A90D9" stroke-width="2"/>
<circle cx="747.6" cy="96.8" r="3.5" fill="white" stroke="#4A90D9" stroke-width="2"/>
<circle cx="749.1" cy="96.8" r="3.5" fill="white" stroke="#4A90D9" stroke-width="2"/>
<circle cx="751.9" cy="96.8" r="3.5" fill="white" stroke="#4A90D9" stroke-width="2"/>
<circle cx="755.5" cy="96.8" r="3.5" fill="white" stroke="#4A90D9" stroke-width="2"/>
<circle cx="757.5" cy="96.8" r="3.5" fill="white" stroke="#4A90D9" stroke-width="2"/>
<circle cx="760.0" cy="65.0" r="3.5" fill="white" stroke="#4A90D9" stroke-width="2"/>
<text x="80" y="24" font-family="system-ui, sans-serif" font-size="16" font-weight="600" fill="#333">Lines of Code</text>
<line x1="80" y1="40" x2="80" y2="340" stroke="#CCC" stroke-width="1"/><line x1="80" y1="340" x2="760" y2="340" stroke="#CCC" stroke-width="1"/>
</svg>