<svg xmlns="http://www.w3.org/2000/svg" viewBox="0 0 800 400" width="800" height="400">
<rect width="800" height="400" fill="white"/>
<defs><linearGradient id="areaGrad" x1="0" y1="0" x2="0" y2="1"><stop offset="0%" stop-color="#4A90D9" stop-opacity="0.3"/><stop offset="100%" stop-color="#4A90D9" stop-opacity="0.05"/></linearGradient></defs>
<line x1="80" y1="302.7" x2="760" y2="302.7" stroke="#E5E5E5" stroke-width="1"/>
<text x="72" y="306.7" text-anchor="end" font-family="system-ui, sans-serif" font-size="12" fill="#666">2k</text>
<line x1="80" y1="240.9" x2="760" y2="240.9" stroke="#E5E5E5" stroke-width="1"/>
<text x="72" y="244.9" text-anchor="end" font-family="system-ui, sans-serif" font-size="12" fill="#666">2k</text>
<line x1="80" y1="179.2" x2="760" y2="179.2" stroke="#E5E5E5" stroke-width="1"/>
<text x="72" y="183.2" text-anchor="end" font-family="system-ui, sans-serif" font-size="12" fill="#666">2k</text>
<line x1="80" y1="117.5" x2="760" y2="117.5" stroke="#E5E5E5" stroke-width="1"/>
<text x="72" y="121.5" text-anchor="end" font-family="system-ui, sans-serif" font-size="12" fill="#666">2k</text>
<line x1="80" y1="55.7" x2="760" y2="55.7" stroke="#E5E5E5" stroke-width="1"/>
<text x="72" y="59.7" text-anchor="end" font-family="system-ui, sans-serif" font-size="12" fill="#666">2k</text>
<text x="80.0" y="360" text-anchor="middle" font-family="system-ui, sans-serif" font-size="12" fill="#666">Feb 2026</text>
<text x="193.3" y="360" text-anchor="middle" font-family="system-ui, sans-serif" font-size="12" fill="#666">Feb 2026</text>
<text x="306.7" y="360" text-anchor="middle" font-family="system-ui, sans-serif" font-size="12" fill="#666">Feb 2026</text>
<text x="420.0" y="360" text-anchor="middle" font-family="system-ui, sans-serif" font-size="12" fill="#666">Feb 2026</text>
<text x="533.3" y="360" text-anchor="middle" font-family="system-ui, sans-serif" font-size="12" fill="#666">Feb 2026</text>
<text x="646.7" y="360" text-anchor="middle" font-family="system-ui, sans-serif" font-size="12" fill="#666">Feb 2026</text>
<text x="760.0" y="360" text-anchor="middle" font-family="system-ui, sans-serif" font-size="12" fill="#666">Feb 2026</text>
<path d="M80.0,340.0 L80.0,315.0 L173.6,308.8 L175.7,222.4 L176.3,222.4 L177.6,228.6 L177.9,228.6 L178.5,228.6 L179.6,222.4 L179.6,222.4 L179.9,219.3 L180.5,219.3 L181.1,203.9 L181.4,203.9 L181.6,203.9 L181.9,197.7 L182.3,197.7 L183.0,197.7 L183.2,197.7 L183.7,185.4 L184.0,185.4 L184.6,185.4 L184.9,185.4 L185.6,166.9 L186.0,166.9 L186.2,166.9 L186.4,166.9 L186.9,166.9 L187.5,166.9 L187.8,166.9 L188.2,145.2 L188.8,145.2 L189.1,129.8 L189.6,129.8 L189.9,129.8 L190.4,111.3 L190.6,111.3 L190.9,111.3 L191.2,111.3 L191.8,111.3 L284.7,92.8 L760.0,65.0 L760.0,340.0Z" fill="url(#areaGrad)"/>
<path d="M80.0,315.0 L173.6,308.8 L175.7,222.4 L176.3,222.4 L177.6,228.6 L177.9,228.6 L178.5,228.6 L179.6,222.4 L179.6,222.4 L179.9,219.3 L180.5,219.3 L181.1,203.9 L181.4,203.9 L181.6,203.9 L181.9,197.7 L182.3,197.7 L183.0,197.7 L183.2,197.7 L183.7,185.4 L184.0,185.4 L184.6,185.4 L184.9,185.4 L185.6,166.9 L186.0,166.9 L186.2,166.9 L186.4,166.9 L186.9,166.9 L187.5,166.9 L187.8,166.9 L188.2,145.2 L188.8,145.2 L189.1,129.8 L189.6,129.8 L189.9,129.8 L190.4,111.3 L190.6,111.3 L190.9,111.3 L191.2,111.3 L191.8,111.3 L284.7,92.8 L760.0,65.0" fill="none" stroke="#4A90D9" stroke-width="2.5" stroke-linejoin="round" stroke-linecap="round"/>
<circle cx="80.0" cy="315.0" r="3.5" fill="white" stroke="#4A90D9" stroke-width="2"/>
<circle cx="173.6" cy="308.8" r="3.5" fill="white" stroke="#4A90D9" stroke-width="2"/>
<circle cx="175.7" cy="222.4" r="3.5" fill="white" stroke="#4A90D9" stroke-width="2"/>
<circle cx="176.3" cy="222.4" r="3.5" fill="white" stroke="#4A90D9" stroke-width="2"/>
<circle cx="177.6" cy="228.6" r="3.5" fill="white" stroke="#4A90D9" stroke-width="2"/>
<circle cx="177.9" cy="228.6" r="3.5" fill="white" stroke="#4A90D9" stroke-width="2"/>
<circle cx="178.5" cy="228.6" r="3.5" fill="white" stroke="#4A90D9" stroke-width="2"/>
<circle cx="179.6" cy="222.4" r="3.5" fill="white" stroke="#4A90D9" stroke-width="2"/>
<circle cx="179.6" cy="222.4" r="3.5" fill="white" stroke="#4A90D9" stroke-width="2"/>
<circle cx="179.9" cy="219.3" r="3.5" fill="white" stroke="#4A90D9" stroke-width="2"/>
<circle cx="180.5" cy="219.3" r="3.5" fill="white" stroke="#4A90D9" stroke-width="2"/>
<circle cx="181.1" cy="203.9" r="3.5" fill="white" stroke="#4A90D9" stroke-width="2"/>
<circle cx="181.4" cy="203.9" r="3.5" fill="white" stroke="#4A90D9" stroke-width="2"/>
<circle cx="181.6" cy="203.9" r="3.5" fill="white" stroke="#4A90D9" stroke-width="2"/>
<circle cx="181.9" cy="197.7" r="3.5" fill="white" stroke="#4A90D9" stroke-width="2"/>
<circle cx="182.3" cy="197.7" r="3.5" fill="white" stroke="#4A90D9" stroke-width="2"/>
<circle cx="183.0" cy="197.7" r="3.5" fill="white" stroke="#4A90D9" stroke-width="2"/>
<circle cx="183.2" cy="197.7" r="3.5" fill="white" stroke="#4A90D9" stroke-width="2"/>
<circle cx="183.7" cy="185.4" r="3.5" fill="white" stroke="#4A90D9" stroke-width="2"/>
<circle cx="184.0" cy="185.4" r="3.5" fill="white" stroke="#4A90D9" stroke-width="2"/>
<circle cx="184.6" cy="185.4" r="3.5" fill="white" stroke="#4A90D9" stroke-width="2"/>
<circle cx="184.9" cy="185.4" r="3.5" fill="white" stroke="#4A90D9" stroke-width="2"/>
<circle cx="185.6" cy="166.9" r="3.5" fill="white" stroke="#4A90D9" stroke-width="2"/>
<circle cx="186.0" cy="166.9" r="3.5" fill="white" stroke="#4A90D9" stroke-width="2"/>
<circle cx="186.2" cy="166.9" r="3.5" fill="white" stroke="#4A90D9" stroke-width="2"/>
<circle cx="186.4" cy="166.9" r="3.5" fill="white" stroke="#4A90D9" stroke-width="2"/>
<circle cx="186.9" cy="166.9" r="3.5" fill="white" stroke="#4A90D9" stroke-width="2"/>
<circle cx="187.5" cy="166.9" r="3.5" fill="white" stroke="#4A90D9" stroke-width="2"/>
<circle cx="187.8" cy="166.9" r="3.5" fill="white" stroke="#4A90D9" stroke-width="2"/>
<circle cx="188.2" cy="145.2" r="3.5" fill="white" stroke="#4A90D9" stroke-width="2"/>
<circle cx="188.8" cy="145.2" r="3.5" fill="white" stroke="#4A90D9" stroke-width="2"/>
<circle cx="189.1" cy="129.8" r="3.5" fill="white" stroke="#4A90D9" stroke-width="2"/>
<circle cx="189.6" cy="129.8" r="3.5" fill="white" stroke="#4A90D9" stroke-width="2"/>
<circle cx="189.9" cy="129.8" r="3.5" fill="white" stroke="#4A90D9" stroke-width="2"/>
<circle cx="190.4" cy="111.3" r="3.5" fill="white" stroke="#4A90D9" stroke-width="2"/>
<circle cx="190.6" cy="111.3" r="3.5" fill="white" stroke="#4A90D9" stroke-width="2"/>
<circle cx="190.9" cy="111.3" r="3.5" fill="white" stroke="#4A90D9" stroke-width="2"/>
<circle cx="191.2" cy="111.3" r="3.5" fill="white" stroke="#4A90D9" stroke-width="2"/>
<circle cx="191.8" cy="111.3" r="3.5" fill="white" stroke="#4A90D9" stroke-width="2"/>
<circle cx="284.7" cy="92.8" r="3.5" fill="white" stroke="#4A90D9" stroke-width="2"/>
<circle cx="760.0" cy="65.0" r="3.5" fill="white" stroke="#4A90D9" stroke-width="2"/>
<text x="80" y="24" font-family="system-ui, sans-serif" font-size="16" font-weight="600" fill="#333">Lines of Code</text>
<line x1="80" y1="40" x2="80" y2="340" stroke="#CCC" stroke-width="1"/><line x1="80" y1="340" x2="760" y2="340" stroke="#CCC" stroke-width="1"/>
</svg>