<svg xmlns="http://www.w3.org/2000/svg" viewBox="0 0 800 400" width="800" height="400">
<rect width="800" height="400" fill="white"/>
<defs><linearGradient id="areaGrad" x1="0" y1="0" x2="0" y2="1"><stop offset="0%" stop-color="#4A90D9" stop-opacity="0.3"/><stop offset="100%" stop-color="#4A90D9" stop-opacity="0.05"/></linearGradient></defs>
<line x1="80" y1="288.7" x2="760" y2="288.7" stroke="#E5E5E5" stroke-width="1"/>
<text x="72" y="292.7" text-anchor="end" font-family="system-ui, sans-serif" font-size="12" fill="#666">2k</text>
<line x1="80" y1="222.9" x2="760" y2="222.9" stroke="#E5E5E5" stroke-width="1"/>
<text x="72" y="226.9" text-anchor="end" font-family="system-ui, sans-serif" font-size="12" fill="#666">2k</text>
<line x1="80" y1="157.1" x2="760" y2="157.1" stroke="#E5E5E5" stroke-width="1"/>
<text x="72" y="161.1" text-anchor="end" font-family="system-ui, sans-serif" font-size="12" fill="#666">2k</text>
<line x1="80" y1="91.3" x2="760" y2="91.3" stroke="#E5E5E5" stroke-width="1"/>
<text x="72" y="95.3" text-anchor="end" font-family="system-ui, sans-serif" font-size="12" fill="#666">2k</text>
<text x="80.0" y="360" text-anchor="middle" font-family="system-ui, sans-serif" font-size="12" fill="#666">Feb 2026</text>
<text x="193.3" y="360" text-anchor="middle" font-family="system-ui, sans-serif" font-size="12" fill="#666">Feb 2026</text>
<text x="306.7" y="360" text-anchor="middle" font-family="system-ui, sans-serif" font-size="12" fill="#666">Feb 2026</text>
<text x="420.0" y="360" text-anchor="middle" font-family="system-ui, sans-serif" font-size="12" fill="#666">Feb 2026</text>
<text x="533.3" y="360" text-anchor="middle" font-family="system-ui, sans-serif" font-size="12" fill="#666">Feb 2026</text>
<text x="646.7" y="360" text-anchor="middle" font-family="system-ui, sans-serif" font-size="12" fill="#666">Feb 2026</text>
<text x="760.0" y="360" text-anchor="middle" font-family="system-ui, sans-serif" font-size="12" fill="#666">Feb 2026</text>
<path d="M80.0,340.0 L80.0,315.0 L702.6,301.8 L716.1,117.6 L720.1,117.6 L729.2,130.8 L730.8,130.8 L735.3,130.8 L742.4,117.6 L742.6,117.6 L744.3,111.1 L748.2,111.1 L752.2,78.2 L754.0,78.2 L755.8,78.2 L757.9,65.0 L760.0,65.0 L760.0,340.0Z" fill="url(#areaGrad)"/>
<path d="M80.0,315.0 L702.6,301.8 L716.1,117.6 L720.1,117.6 L729.2,130.8 L730.8,130.8 L735.3,130.8 L742.4,117.6 L742.6,117.6 L744.3,111.1 L748.2,111.1 L752.2,78.2 L754.0,78.2 L755.8,78.2 L757.9,65.0 L760.0,65.0" fill="none" stroke="#4A90D9" stroke-width="2.5" stroke-linejoin="round" stroke-linecap="round"/>
<circle cx="80.0" cy="315.0" r="3.5" fill="white" stroke="#4A90D9" stroke-width="2"/>
<circle cx="702.6" cy="301.8" r="3.5" fill="white" stroke="#4A90D9" stroke-width="2"/>
<circle cx="716.1" cy="117.6" r="3.5" fill="white" stroke="#4A90D9" stroke-width="2"/>
<circle cx="720.1" cy="117.6" r="3.5" fill="white" stroke="#4A90D9" stroke-width="2"/>
<circle cx="729.2" cy="130.8" r="3.5" fill="white" stroke="#4A90D9" stroke-width="2"/>
<circle cx="730.8" cy="130.8" r="3.5" fill="white" stroke="#4A90D9" stroke-width="2"/>
<circle cx="735.3" cy="130.8" r="3.5" fill="white" stroke="#4A90D9" stroke-width="2"/>
<circle cx="742.4" cy="117.6" r="3.5" fill="white" stroke="#4A90D9" stroke-width="2"/>
<circle cx="742.6" cy="117.6" r="3.5" fill="white" stroke="#4A90D9" stroke-width="2"/>
<circle cx="744.3" cy="111.1" r="3.5" fill="white" stroke="#4A90D9" stroke-width="2"/>
<circle cx="748.2" cy="111.1" r="3.5" fill="white" stroke="#4A90D9" stroke-width="2"/>
<circle cx="752.2" cy="78.2" r="3.5" fill="white" stroke="#4A90D9" stroke-width="2"/>
<circle cx="754.0" cy="78.2" r="3.5" fill="white" stroke="#4A90D9" stroke-width="2"/>
<circle cx="755.8" cy="78.2" r="3.5" fill="white" stroke="#4A90D9" stroke-width="2"/>
<circle cx="757.9" cy="65.0" r="3.5" fill="white" stroke="#4A90D9" stroke-width="2"/>
<circle cx="760.0" cy="65.0" r="3.5" fill="white" stroke="#4A90D9" stroke-width="2"/>
<text x="80" y="24" font-family="system-ui, sans-serif" font-size="16" font-weight="600" fill="#333">Lines of Code</text>
<line x1="80" y1="40" x2="80" y2="340" stroke="#CCC" stroke-width="1"/><line x1="80" y1="340" x2="760" y2="340" stroke="#CCC" stroke-width="1"/>
</svg>