<svg xmlns="http://www.w3.org/2000/svg" viewBox="0 0 800 400" width="800" height="400">
<rect width="800" height="400" fill="white"/>
<defs><linearGradient id="areaGrad" x1="0" y1="0" x2="0" y2="1"><stop offset="0%" stop-color="#4A90D9" stop-opacity="0.3"/><stop offset="100%" stop-color="#4A90D9" stop-opacity="0.05"/></linearGradient></defs>
<line x1="80" y1="287.2" x2="760" y2="287.2" stroke="#E5E5E5" stroke-width="1"/>
<text x="72" y="291.2" text-anchor="end" font-family="system-ui, sans-serif" font-size="12" fill="#666">2k</text>
<line x1="80" y1="217.8" x2="760" y2="217.8" stroke="#E5E5E5" stroke-width="1"/>
<text x="72" y="221.8" text-anchor="end" font-family="system-ui, sans-serif" font-size="12" fill="#666">2k</text>
<line x1="80" y1="148.3" x2="760" y2="148.3" stroke="#E5E5E5" stroke-width="1"/>
<text x="72" y="152.3" text-anchor="end" font-family="system-ui, sans-serif" font-size="12" fill="#666">2k</text>
<line x1="80" y1="78.9" x2="760" y2="78.9" stroke="#E5E5E5" stroke-width="1"/>
<text x="72" y="82.9" text-anchor="end" font-family="system-ui, sans-serif" font-size="12" fill="#666">2k</text>
<text x="80.0" y="360" text-anchor="middle" font-family="system-ui, sans-serif" font-size="12" fill="#666">Feb 2026</text>
<text x="193.3" y="360" text-anchor="middle" font-family="system-ui, sans-serif" font-size="12" fill="#666">Feb 2026</text>
<text x="306.7" y="360" text-anchor="middle" font-family="system-ui, sans-serif" font-size="12" fill="#666">Feb 2026</text>
<text x="420.0" y="360" text-anchor="middle" font-family="system-ui, sans-serif" font-size="12" fill="#666">Feb 2026</text>
<text x="533.3" y="360" text-anchor="middle" font-family="system-ui, sans-serif" font-size="12" fill="#666">Feb 2026</text>
<text x="646.7" y="360" text-anchor="middle" font-family="system-ui, sans-serif" font-size="12" fill="#666">Feb 2026</text>
<text x="760.0" y="360" text-anchor="middle" font-family="system-ui, sans-serif" font-size="12" fill="#666">Feb 2026</text>
<path d="M80.0,340.0 L80.0,315.0 L709.9,301.1 L723.5,106.7 L727.6,106.7 L736.7,120.6 L738.4,120.6 L742.9,120.6 L750.1,106.7 L750.3,106.7 L752.0,99.7 L755.9,99.7 L760.0,65.0 L760.0,340.0Z" fill="url(#areaGrad)"/>
<path d="M80.0,315.0 L709.9,301.1 L723.5,106.7 L727.6,106.7 L736.7,120.6 L738.4,120.6 L742.9,120.6 L750.1,106.7 L750.3,106.7 L752.0,99.7 L755.9,99.7 L760.0,65.0" fill="none" stroke="#4A90D9" stroke-width="2.5" stroke-linejoin="round" stroke-linecap="round"/>
<circle cx="80.0" cy="315.0" r="3.5" fill="white" stroke="#4A90D9" stroke-width="2"/>
<circle cx="709.9" cy="301.1" r="3.5" fill="white" stroke="#4A90D9" stroke-width="2"/>
<circle cx="723.5" cy="106.7" r="3.5" fill="white" stroke="#4A90D9" stroke-width="2"/>
<circle cx="727.6" cy="106.7" r="3.5" fill="white" stroke="#4A90D9" stroke-width="2"/>
<circle cx="736.7" cy="120.6" r="3.5" fill="white" stroke="#4A90D9" stroke-width="2"/>
<circle cx="738.4" cy="120.6" r="3.5" fill="white" stroke="#4A90D9" stroke-width="2"/>
<circle cx="742.9" cy="120.6" r="3.5" fill="white" stroke="#4A90D9" stroke-width="2"/>
<circle cx="750.1" cy="106.7" r="3.5" fill="white" stroke="#4A90D9" stroke-width="2"/>
<circle cx="750.3" cy="106.7" r="3.5" fill="white" stroke="#4A90D9" stroke-width="2"/>
<circle cx="752.0" cy="99.7" r="3.5" fill="white" stroke="#4A90D9" stroke-width="2"/>
<circle cx="755.9" cy="99.7" r="3.5" fill="white" stroke="#4A90D9" stroke-width="2"/>
<circle cx="760.0" cy="65.0" r="3.5" fill="white" stroke="#4A90D9" stroke-width="2"/>
<text x="80" y="24" font-family="system-ui, sans-serif" font-size="16" font-weight="600" fill="#333">Lines of Code</text>
<line x1="80" y1="40" x2="80" y2="340" stroke="#CCC" stroke-width="1"/><line x1="80" y1="340" x2="760" y2="340" stroke="#CCC" stroke-width="1"/>
</svg>