<svg xmlns="http://www.w3.org/2000/svg" viewBox="0 0 800 400" width="800" height="400">
<rect width="800" height="400" fill="white"/>
<defs><linearGradient id="areaGrad" x1="0" y1="0" x2="0" y2="1"><stop offset="0%" stop-color="#4A90D9" stop-opacity="0.3"/><stop offset="100%" stop-color="#4A90D9" stop-opacity="0.05"/></linearGradient></defs>
<line x1="80" y1="306.3" x2="760" y2="306.3" stroke="#E5E5E5" stroke-width="1"/>
<text x="72" y="310.3" text-anchor="end" font-family="system-ui, sans-serif" font-size="12" fill="#666">1k</text>
<line x1="80" y1="253.7" x2="760" y2="253.7" stroke="#E5E5E5" stroke-width="1"/>
<text x="72" y="257.7" text-anchor="end" font-family="system-ui, sans-serif" font-size="12" fill="#666">1k</text>
<line x1="80" y1="201.1" x2="760" y2="201.1" stroke="#E5E5E5" stroke-width="1"/>
<text x="72" y="205.1" text-anchor="end" font-family="system-ui, sans-serif" font-size="12" fill="#666">1k</text>
<line x1="80" y1="148.4" x2="760" y2="148.4" stroke="#E5E5E5" stroke-width="1"/>
<text x="72" y="152.4" text-anchor="end" font-family="system-ui, sans-serif" font-size="12" fill="#666">2k</text>
<line x1="80" y1="95.8" x2="760" y2="95.8" stroke="#E5E5E5" stroke-width="1"/>
<text x="72" y="99.8" text-anchor="end" font-family="system-ui, sans-serif" font-size="12" fill="#666">2k</text>
<line x1="80" y1="43.2" x2="760" y2="43.2" stroke="#E5E5E5" stroke-width="1"/>
<text x="72" y="47.2" text-anchor="end" font-family="system-ui, sans-serif" font-size="12" fill="#666">2k</text>
<text x="80.0" y="360" text-anchor="middle" font-family="system-ui, sans-serif" font-size="12" fill="#666">Feb 2026</text>
<text x="193.3" y="360" text-anchor="middle" font-family="system-ui, sans-serif" font-size="12" fill="#666">Feb 2026</text>
<text x="306.7" y="360" text-anchor="middle" font-family="system-ui, sans-serif" font-size="12" fill="#666">Feb 2026</text>
<text x="420.0" y="360" text-anchor="middle" font-family="system-ui, sans-serif" font-size="12" fill="#666">Feb 2026</text>
<text x="533.3" y="360" text-anchor="middle" font-family="system-ui, sans-serif" font-size="12" fill="#666">Feb 2026</text>
<text x="646.7" y="360" text-anchor="middle" font-family="system-ui, sans-serif" font-size="12" fill="#666">Feb 2026</text>
<text x="760.0" y="360" text-anchor="middle" font-family="system-ui, sans-serif" font-size="12" fill="#666">Feb 2026</text>
<path d="M80.0,340.0 L80.0,91.6 L126.0,91.1 L127.0,83.7 L127.3,83.7 L128.0,84.2 L128.1,84.2 L128.4,84.2 L129.0,83.7 L129.0,83.7 L129.1,83.4 L129.4,83.4 L129.7,82.1 L129.8,82.1 L130.0,82.1 L130.1,81.6 L130.3,81.6 L130.6,81.6 L130.7,81.6 L131.0,80.5 L131.1,80.5 L131.4,80.5 L131.6,80.5 L131.9,78.9 L132.1,78.9 L132.2,78.9 L132.3,78.9 L132.5,78.9 L132.8,78.9 L133.0,78.9 L133.2,77.1 L133.5,77.1 L133.7,75.8 L133.9,75.8 L134.0,75.8 L134.3,74.2 L134.4,74.2 L134.5,74.2 L134.7,74.2 L135.0,74.2 L180.6,72.6 L414.3,70.3 L448.1,65.0 L760.0,315.0 L760.0,340.0Z" fill="url(#areaGrad)"/>
<path d="M80.0,91.6 L126.0,91.1 L127.0,83.7 L127.3,83.7 L128.0,84.2 L128.1,84.2 L128.4,84.2 L129.0,83.7 L129.0,83.7 L129.1,83.4 L129.4,83.4 L129.7,82.1 L129.8,82.1 L130.0,82.1 L130.1,81.6 L130.3,81.6 L130.6,81.6 L130.7,81.6 L131.0,80.5 L131.1,80.5 L131.4,80.5 L131.6,80.5 L131.9,78.9 L132.1,78.9 L132.2,78.9 L132.3,78.9 L132.5,78.9 L132.8,78.9 L133.0,78.9 L133.2,77.1 L133.5,77.1 L133.7,75.8 L133.9,75.8 L134.0,75.8 L134.3,74.2 L134.4,74.2 L134.5,74.2 L134.7,74.2 L135.0,74.2 L180.6,72.6 L414.3,70.3 L448.1,65.0 L760.0,315.0" fill="none" stroke="#4A90D9" stroke-width="2.5" stroke-linejoin="round" stroke-linecap="round"/>
<circle cx="80.0" cy="91.6" r="3.5" fill="white" stroke="#4A90D9" stroke-width="2"/>
<circle cx="126.0" cy="91.1" r="3.5" fill="white" stroke="#4A90D9" stroke-width="2"/>
<circle cx="127.0" cy="83.7" r="3.5" fill="white" stroke="#4A90D9" stroke-width="2"/>
<circle cx="127.3" cy="83.7" r="3.5" fill="white" stroke="#4A90D9" stroke-width="2"/>
<circle cx="128.0" cy="84.2" r="3.5" fill="white" stroke="#4A90D9" stroke-width="2"/>
<circle cx="128.1" cy="84.2" r="3.5" fill="white" stroke="#4A90D9" stroke-width="2"/>
<circle cx="128.4" cy="84.2" r="3.5" fill="white" stroke="#4A90D9" stroke-width="2"/>
<circle cx="129.0" cy="83.7" r="3.5" fill="white" stroke="#4A90D9" stroke-width="2"/>
<circle cx="129.0" cy="83.7" r="3.5" fill="white" stroke="#4A90D9" stroke-width="2"/>
<circle cx="129.1" cy="83.4" r="3.5" fill="white" stroke="#4A90D9" stroke-width="2"/>
<circle cx="129.4" cy="83.4" r="3.5" fill="white" stroke="#4A90D9" stroke-width="2"/>
<circle cx="129.7" cy="82.1" r="3.5" fill="white" stroke="#4A90D9" stroke-width="2"/>
<circle cx="129.8" cy="82.1" r="3.5" fill="white" stroke="#4A90D9" stroke-width="2"/>
<circle cx="130.0" cy="82.1" r="3.5" fill="white" stroke="#4A90D9" stroke-width="2"/>
<circle cx="130.1" cy="81.6" r="3.5" fill="white" stroke="#4A90D9" stroke-width="2"/>
<circle cx="130.3" cy="81.6" r="3.5" fill="white" stroke="#4A90D9" stroke-width="2"/>
<circle cx="130.6" cy="81.6" r="3.5" fill="white" stroke="#4A90D9" stroke-width="2"/>
<circle cx="130.7" cy="81.6" r="3.5" fill="white" stroke="#4A90D9" stroke-width="2"/>
<circle cx="131.0" cy="80.5" r="3.5" fill="white" stroke="#4A90D9" stroke-width="2"/>
<circle cx="131.1" cy="80.5" r="3.5" fill="white" stroke="#4A90D9" stroke-width="2"/>
<circle cx="131.4" cy="80.5" r="3.5" fill="white" stroke="#4A90D9" stroke-width="2"/>
<circle cx="131.6" cy="80.5" r="3.5" fill="white" stroke="#4A90D9" stroke-width="2"/>
<circle cx="131.9" cy="78.9" r="3.5" fill="white" stroke="#4A90D9" stroke-width="2"/>
<circle cx="132.1" cy="78.9" r="3.5" fill="white" stroke="#4A90D9" stroke-width="2"/>
<circle cx="132.2" cy="78.9" r="3.5" fill="white" stroke="#4A90D9" stroke-width="2"/>
<circle cx="132.3" cy="78.9" r="3.5" fill="white" stroke="#4A90D9" stroke-width="2"/>
<circle cx="132.5" cy="78.9" r="3.5" fill="white" stroke="#4A90D9" stroke-width="2"/>
<circle cx="132.8" cy="78.9" r="3.5" fill="white" stroke="#4A90D9" stroke-width="2"/>
<circle cx="133.0" cy="78.9" r="3.5" fill="white" stroke="#4A90D9" stroke-width="2"/>
<circle cx="133.2" cy="77.1" r="3.5" fill="white" stroke="#4A90D9" stroke-width="2"/>
<circle cx="133.5" cy="77.1" r="3.5" fill="white" stroke="#4A90D9" stroke-width="2"/>
<circle cx="133.7" cy="75.8" r="3.5" fill="white" stroke="#4A90D9" stroke-width="2"/>
<circle cx="133.9" cy="75.8" r="3.5" fill="white" stroke="#4A90D9" stroke-width="2"/>
<circle cx="134.0" cy="75.8" r="3.5" fill="white" stroke="#4A90D9" stroke-width="2"/>
<circle cx="134.3" cy="74.2" r="3.5" fill="white" stroke="#4A90D9" stroke-width="2"/>
<circle cx="134.4" cy="74.2" r="3.5" fill="white" stroke="#4A90D9" stroke-width="2"/>
<circle cx="134.5" cy="74.2" r="3.5" fill="white" stroke="#4A90D9" stroke-width="2"/>
<circle cx="134.7" cy="74.2" r="3.5" fill="white" stroke="#4A90D9" stroke-width="2"/>
<circle cx="135.0" cy="74.2" r="3.5" fill="white" stroke="#4A90D9" stroke-width="2"/>
<circle cx="180.6" cy="72.6" r="3.5" fill="white" stroke="#4A90D9" stroke-width="2"/>
<circle cx="414.3" cy="70.3" r="3.5" fill="white" stroke="#4A90D9" stroke-width="2"/>
<circle cx="448.1" cy="65.0" r="3.5" fill="white" stroke="#4A90D9" stroke-width="2"/>
<circle cx="760.0" cy="315.0" r="3.5" fill="white" stroke="#4A90D9" stroke-width="2"/>
<text x="80" y="24" font-family="system-ui, sans-serif" font-size="16" font-weight="600" fill="#333">Lines of Code</text>
<line x1="80" y1="40" x2="80" y2="340" stroke="#CCC" stroke-width="1"/><line x1="80" y1="340" x2="760" y2="340" stroke="#CCC" stroke-width="1"/>
</svg>