<svg xmlns="http://www.w3.org/2000/svg" viewBox="0 0 800 400" width="800" height="400">
<rect width="800" height="400" fill="white"/>
<defs><linearGradient id="areaGrad" x1="0" y1="0" x2="0" y2="1"><stop offset="0%" stop-color="#4A90D9" stop-opacity="0.3"/><stop offset="100%" stop-color="#4A90D9" stop-opacity="0.05"/></linearGradient></defs>
<line x1="80" y1="305.1" x2="760" y2="305.1" stroke="#E5E5E5" stroke-width="1"/>
<text x="72" y="309.1" text-anchor="end" font-family="system-ui, sans-serif" font-size="12" fill="#666">2k</text>
<line x1="80" y1="255.6" x2="760" y2="255.6" stroke="#E5E5E5" stroke-width="1"/>
<text x="72" y="259.6" text-anchor="end" font-family="system-ui, sans-serif" font-size="12" fill="#666">2k</text>
<line x1="80" y1="206.1" x2="760" y2="206.1" stroke="#E5E5E5" stroke-width="1"/>
<text x="72" y="210.1" text-anchor="end" font-family="system-ui, sans-serif" font-size="12" fill="#666">2k</text>
<line x1="80" y1="156.6" x2="760" y2="156.6" stroke="#E5E5E5" stroke-width="1"/>
<text x="72" y="160.6" text-anchor="end" font-family="system-ui, sans-serif" font-size="12" fill="#666">2k</text>
<line x1="80" y1="107.1" x2="760" y2="107.1" stroke="#E5E5E5" stroke-width="1"/>
<text x="72" y="111.1" text-anchor="end" font-family="system-ui, sans-serif" font-size="12" fill="#666">2k</text>
<line x1="80" y1="57.6" x2="760" y2="57.6" stroke="#E5E5E5" stroke-width="1"/>
<text x="72" y="61.6" text-anchor="end" font-family="system-ui, sans-serif" font-size="12" fill="#666">2k</text>
<text x="80.0" y="360" text-anchor="middle" font-family="system-ui, sans-serif" font-size="12" fill="#666">Feb 2026</text>
<text x="193.3" y="360" text-anchor="middle" font-family="system-ui, sans-serif" font-size="12" fill="#666">Feb 2026</text>
<text x="306.7" y="360" text-anchor="middle" font-family="system-ui, sans-serif" font-size="12" fill="#666">Feb 2026</text>
<text x="420.0" y="360" text-anchor="middle" font-family="system-ui, sans-serif" font-size="12" fill="#666">Feb 2026</text>
<text x="533.3" y="360" text-anchor="middle" font-family="system-ui, sans-serif" font-size="12" fill="#666">Feb 2026</text>
<text x="646.7" y="360" text-anchor="middle" font-family="system-ui, sans-serif" font-size="12" fill="#666">Feb 2026</text>
<text x="760.0" y="360" text-anchor="middle" font-family="system-ui, sans-serif" font-size="12" fill="#666">Feb 2026</text>
<path d="M80.0,340.0 L80.0,315.0 L165.0,310.0 L166.9,240.7 L167.4,240.7 L168.7,245.7 L168.9,245.7 L169.5,245.7 L170.5,240.7 L170.5,240.7 L170.7,238.3 L171.2,238.3 L171.8,225.9 L172.0,225.9 L172.3,225.9 L172.6,220.9 L172.9,220.9 L173.6,220.9 L173.7,220.9 L174.1,211.0 L174.4,211.0 L175.0,211.0 L175.3,211.0 L175.9,196.2 L176.3,196.2 L176.4,196.2 L176.7,196.2 L177.1,196.2 L177.6,196.2 L177.9,196.2 L178.2,178.9 L178.8,178.9 L179.1,166.5 L179.6,166.5 L179.8,166.5 L180.3,151.6 L180.4,151.6 L180.7,151.6 L181.0,151.6 L181.6,151.6 L265.9,136.8 L697.5,114.5 L760.0,65.0 L760.0,340.0Z" fill="url(#areaGrad)"/>
<path d="M80.0,315.0 L165.0,310.0 L166.9,240.7 L167.4,240.7 L168.7,245.7 L168.9,245.7 L169.5,245.7 L170.5,240.7 L170.5,240.7 L170.7,238.3 L171.2,238.3 L171.8,225.9 L172.0,225.9 L172.3,225.9 L172.6,220.9 L172.9,220.9 L173.6,220.9 L173.7,220.9 L174.1,211.0 L174.4,211.0 L175.0,211.0 L175.3,211.0 L175.9,196.2 L176.3,196.2 L176.4,196.2 L176.7,196.2 L177.1,196.2 L177.6,196.2 L177.9,196.2 L178.2,178.9 L178.8,178.9 L179.1,166.5 L179.6,166.5 L179.8,166.5 L180.3,151.6 L180.4,151.6 L180.7,151.6 L181.0,151.6 L181.6,151.6 L265.9,136.8 L697.5,114.5 L760.0,65.0" fill="none" stroke="#4A90D9" stroke-width="2.5" stroke-linejoin="round" stroke-linecap="round"/>
<circle cx="80.0" cy="315.0" r="3.5" fill="white" stroke="#4A90D9" stroke-width="2"/>
<circle cx="165.0" cy="310.0" r="3.5" fill="white" stroke="#4A90D9" stroke-width="2"/>
<circle cx="166.9" cy="240.7" r="3.5" fill="white" stroke="#4A90D9" stroke-width="2"/>
<circle cx="167.4" cy="240.7" r="3.5" fill="white" stroke="#4A90D9" stroke-width="2"/>
<circle cx="168.7" cy="245.7" r="3.5" fill="white" stroke="#4A90D9" stroke-width="2"/>
<circle cx="168.9" cy="245.7" r="3.5" fill="white" stroke="#4A90D9" stroke-width="2"/>
<circle cx="169.5" cy="245.7" r="3.5" fill="white" stroke="#4A90D9" stroke-width="2"/>
<circle cx="170.5" cy="240.7" r="3.5" fill="white" stroke="#4A90D9" stroke-width="2"/>
<circle cx="170.5" cy="240.7" r="3.5" fill="white" stroke="#4A90D9" stroke-width="2"/>
<circle cx="170.7" cy="238.3" r="3.5" fill="white" stroke="#4A90D9" stroke-width="2"/>
<circle cx="171.2" cy="238.3" r="3.5" fill="white" stroke="#4A90D9" stroke-width="2"/>
<circle cx="171.8" cy="225.9" r="3.5" fill="white" stroke="#4A90D9" stroke-width="2"/>
<circle cx="172.0" cy="225.9" r="3.5" fill="white" stroke="#4A90D9" stroke-width="2"/>
<circle cx="172.3" cy="225.9" r="3.5" fill="white" stroke="#4A90D9" stroke-width="2"/>
<circle cx="172.6" cy="220.9" r="3.5" fill="white" stroke="#4A90D9" stroke-width="2"/>
<circle cx="172.9" cy="220.9" r="3.5" fill="white" stroke="#4A90D9" stroke-width="2"/>
<circle cx="173.6" cy="220.9" r="3.5" fill="white" stroke="#4A90D9" stroke-width="2"/>
<circle cx="173.7" cy="220.9" r="3.5" fill="white" stroke="#4A90D9" stroke-width="2"/>
<circle cx="174.1" cy="211.0" r="3.5" fill="white" stroke="#4A90D9" stroke-width="2"/>
<circle cx="174.4" cy="211.0" r="3.5" fill="white" stroke="#4A90D9" stroke-width="2"/>
<circle cx="175.0" cy="211.0" r="3.5" fill="white" stroke="#4A90D9" stroke-width="2"/>
<circle cx="175.3" cy="211.0" r="3.5" fill="white" stroke="#4A90D9" stroke-width="2"/>
<circle cx="175.9" cy="196.2" r="3.5" fill="white" stroke="#4A90D9" stroke-width="2"/>
<circle cx="176.3" cy="196.2" r="3.5" fill="white" stroke="#4A90D9" stroke-width="2"/>
<circle cx="176.4" cy="196.2" r="3.5" fill="white" stroke="#4A90D9" stroke-width="2"/>
<circle cx="176.7" cy="196.2" r="3.5" fill="white" stroke="#4A90D9" stroke-width="2"/>
<circle cx="177.1" cy="196.2" r="3.5" fill="white" stroke="#4A90D9" stroke-width="2"/>
<circle cx="177.6" cy="196.2" r="3.5" fill="white" stroke="#4A90D9" stroke-width="2"/>
<circle cx="177.9" cy="196.2" r="3.5" fill="white" stroke="#4A90D9" stroke-width="2"/>
<circle cx="178.2" cy="178.9" r="3.5" fill="white" stroke="#4A90D9" stroke-width="2"/>
<circle cx="178.8" cy="178.9" r="3.5" fill="white" stroke="#4A90D9" stroke-width="2"/>
<circle cx="179.1" cy="166.5" r="3.5" fill="white" stroke="#4A90D9" stroke-width="2"/>
<circle cx="179.6" cy="166.5" r="3.5" fill="white" stroke="#4A90D9" stroke-width="2"/>
<circle cx="179.8" cy="166.5" r="3.5" fill="white" stroke="#4A90D9" stroke-width="2"/>
<circle cx="180.3" cy="151.6" r="3.5" fill="white" stroke="#4A90D9" stroke-width="2"/>
<circle cx="180.4" cy="151.6" r="3.5" fill="white" stroke="#4A90D9" stroke-width="2"/>
<circle cx="180.7" cy="151.6" r="3.5" fill="white" stroke="#4A90D9" stroke-width="2"/>
<circle cx="181.0" cy="151.6" r="3.5" fill="white" stroke="#4A90D9" stroke-width="2"/>
<circle cx="181.6" cy="151.6" r="3.5" fill="white" stroke="#4A90D9" stroke-width="2"/>
<circle cx="265.9" cy="136.8" r="3.5" fill="white" stroke="#4A90D9" stroke-width="2"/>
<circle cx="697.5" cy="114.5" r="3.5" fill="white" stroke="#4A90D9" stroke-width="2"/>
<circle cx="760.0" cy="65.0" r="3.5" fill="white" stroke="#4A90D9" stroke-width="2"/>
<text x="80" y="24" font-family="system-ui, sans-serif" font-size="16" font-weight="600" fill="#333">Lines of Code</text>
<line x1="80" y1="40" x2="80" y2="340" stroke="#CCC" stroke-width="1"/><line x1="80" y1="340" x2="760" y2="340" stroke="#CCC" stroke-width="1"/>
</svg>