<svg xmlns="http://www.w3.org/2000/svg" viewBox="0 0 800 400" width="800" height="400">
<rect width="800" height="400" fill="white"/>
<defs><linearGradient id="areaGrad" x1="0" y1="0" x2="0" y2="1"><stop offset="0%" stop-color="#4A90D9" stop-opacity="0.3"/><stop offset="100%" stop-color="#4A90D9" stop-opacity="0.05"/></linearGradient></defs>
<line x1="80" y1="279.3" x2="760" y2="279.3" stroke="#E5E5E5" stroke-width="1"/>
<text x="72" y="283.3" text-anchor="end" font-family="system-ui, sans-serif" font-size="12" fill="#666">970</text>
<line x1="80" y1="207.9" x2="760" y2="207.9" stroke="#E5E5E5" stroke-width="1"/>
<text x="72" y="211.9" text-anchor="end" font-family="system-ui, sans-serif" font-size="12" fill="#666">972</text>
<line x1="80" y1="136.4" x2="760" y2="136.4" stroke="#E5E5E5" stroke-width="1"/>
<text x="72" y="140.4" text-anchor="end" font-family="system-ui, sans-serif" font-size="12" fill="#666">974</text>
<line x1="80" y1="65.0" x2="760" y2="65.0" stroke="#E5E5E5" stroke-width="1"/>
<text x="72" y="69.0" text-anchor="end" font-family="system-ui, sans-serif" font-size="12" fill="#666">976</text>
<text x="80.0" y="360" text-anchor="middle" font-family="system-ui, sans-serif" font-size="12" fill="#666">Feb 2026</text>
<text x="193.3" y="360" text-anchor="middle" font-family="system-ui, sans-serif" font-size="12" fill="#666">Feb 2026</text>
<text x="306.7" y="360" text-anchor="middle" font-family="system-ui, sans-serif" font-size="12" fill="#666">Feb 2026</text>
<text x="420.0" y="360" text-anchor="middle" font-family="system-ui, sans-serif" font-size="12" fill="#666">Feb 2026</text>
<text x="533.3" y="360" text-anchor="middle" font-family="system-ui, sans-serif" font-size="12" fill="#666">Feb 2026</text>
<text x="646.7" y="360" text-anchor="middle" font-family="system-ui, sans-serif" font-size="12" fill="#666">Feb 2026</text>
<text x="760.0" y="360" text-anchor="middle" font-family="system-ui, sans-serif" font-size="12" fill="#666">Feb 2026</text>
<path d="M80.0,340.0 L80.0,315.0 L760.0,65.0 L760.0,340.0Z" fill="url(#areaGrad)"/>
<path d="M80.0,315.0 L760.0,65.0" fill="none" stroke="#4A90D9" stroke-width="2.5" stroke-linejoin="round" stroke-linecap="round"/>
<circle cx="80.0" cy="315.0" r="3.5" fill="white" stroke="#4A90D9" stroke-width="2"/>
<circle cx="760.0" cy="65.0" r="3.5" fill="white" stroke="#4A90D9" stroke-width="2"/>
<text x="80" y="24" font-family="system-ui, sans-serif" font-size="16" font-weight="600" fill="#333">Lines of Code</text>
<line x1="80" y1="40" x2="80" y2="340" stroke="#CCC" stroke-width="1"/><line x1="80" y1="340" x2="760" y2="340" stroke="#CCC" stroke-width="1"/>
</svg>